# xmcd
#
# Track frame offsets: 
#        150
#        19355
#        38343
#        48863
#        68893
#        89318
#        104840
#        121305
#        135033
#        155915
#
# Disc length: 2349 seconds
#
# Revision: 4
# Processed by: cddbd v1.5.2PL0 Copyright (c) Steve Scherf et al.
# Submitted via: ExactAudioCopy v1.0b3
#
DISCID=7e092b0a
DTITLE=Cooder, Ry - Boomer's Story
DYEAR=1972
DGENRE=Latin
TTITLE0=Boomer's Story
TTITLE1=Cherry Ball Blues
TTITLE2=Crow Black Chicken
TTITLE3=Ax Sweet Mama
TTITLE4=Maria Elena
TTITLE5=Dark End Of The Street
TTITLE6=Rally 'Round The Flag
TTITLE7=Comin' In On A Wing And A Prayer
TTITLE8=President Kennedy
TTITLE9=Good Morning Mr. Railroad Man
EXTD=
EXTT0=
EXTT1=
EXTT2=
EXTT3=
EXTT4=
EXTT5=
EXTT6=
EXTT7=
EXTT8=
EXTT9=
PLAYORDER=
